

<svg version="1.1" id="microsoft" xmlns="http://www.w3.org/2000/svg" xmlns:xlink="http://www.w3.org/1999/xlink" x="0px" y="0px"
	 width="500px" height="135px" viewBox="0 0 500 135" enable-background="new 0 0 500 135" xml:space="preserve">
<path fill-rule="evenodd" clip-rule="evenodd" fill="#E20613" d="M489.9,90.7c-3.4,0-6.2,2.8-6.2,6.2c0,3.4,2.8,6.2,6.2,6.2
	c3.4,0,6.2-2.8,6.2-6.2C496.1,93.5,493.4,90.7,489.9,90.7L489.9,90.7z M489.9,102.4c-3,0-5.5-2.4-5.5-5.5c0-3,2.4-5.4,5.5-5.4
	c3,0,5.4,2.4,5.4,5.4C495.4,99.9,493,102.4,489.9,102.4L489.9,102.4z M493.1,95.3c0-0.6-0.3-1.2-0.8-1.5c-0.5-0.3-1.1-0.3-1.7-0.3
	h-3v6.9h0.8v-3.2h1.6l2,3.2h1l-2.1-3.2C492.2,97.1,493.1,96.6,493.1,95.3L493.1,95.3z M489.8,96.5h-1.3V94h2c0.9,0,1.8,0.1,1.8,1.2
	C492.3,96.7,490.8,96.5,489.8,96.5L489.8,96.5z M448.8,31.2c-7.3,0-27.7,0.8-41.1,2.7v67.7h21.6V77.2c2.7,0.9,18.3,2.4,23.8,2.4
	c5.4,0,44.5-1.7,44.5-24.8C497.5,30,456.1,31.2,448.8,31.2L448.8,31.2z M450,67.8c-7,0-15-0.6-20.7-2.7V44.2
	c7.3-0.6,18.8-1.1,22.1-1.1c3.3,0,20.6,0.8,20.7,11.9C472.2,66.7,457,67.8,450,67.8L450,67.8z M77.4,61.1
	c12.9,2.9,23.7,10,23.7,22.7c0,19.2-32.1,20.4-44.2,20.6c-9.4,0.1-36.7-2-54.4-10.6l8.2-16.6c12.7,6.4,40.6,14.5,57,13.3
	c9.5-0.9,9.6-9.4-2.4-11.9c-9.4-2-23.1-3.2-35.5-5.7C15.2,69.2,3.9,64.5,4.2,51.5c0.4-18.3,34.8-20.7,45.1-20.9
	c14.2,0,36.6,2.7,48.2,8.5l-7.1,15.6c-6-2.6-27.1-9.5-38.3-10C43,44.3,31.8,43.3,31.8,49c0,4.2,4.4,5.6,11.9,6.5
	C49.5,56.3,71.5,59.8,77.4,61.1L77.4,61.1z M173.3,60.2V33.9h23v67.7h-23V73.8h-44.8v27.8h-23V33.9h23v26.3H173.3L173.3,60.2z
	 M267.1,33.9h-28.3L199,101.7h17.8l9.2-15.4H271l9.3,15.4h27.7L267.1,33.9L267.1,33.9z M234,72.6l14.2-24.3l14.6,24.3H234L234,72.6z
	 M401,53.7c0.1,13.6-15,19.5-27.5,22l29.5,25.9h-32.5l-33.9-29.9l4.1-7c3.8,0.9,7.4,1.8,11.8,1.8c7,0,23-0.2,22.8-11.8
	c-0.2-12.2-17.2-11.6-20.6-11.6c-3.3,0-14.5,0.5-22.4,1.1v57.5h-21.9V33.9c13.5-2,33.9-2.7,41.1-2.7C358.8,31.2,400.8,28.9,401,53.7
	L401,53.7z"/>
</svg>
