

<svg version="1.1" id="android" xmlns="http://www.w3.org/2000/svg" xmlns:xlink="http://www.w3.org/1999/xlink" x="0px" y="0px"
	 width="500px" height="135px" viewBox="0 0 500 135" enable-background="new 0 0 500 135" xml:space="preserve">
<path fill="#EE4434" d="M56.5,66.4l49.4-58.8h-35l-40,47.7V7.6H2.5v121.7h28.3V77.6l43.3,51.6h35L56.5,66.4z M171.7,82.8
	c0,12.9-10.4,23.3-23.3,23.3c-12.9,0-23.3-10.4-23.3-23.3s10.4-23.3,23.3-23.3C161.2,59.4,171.7,69.9,171.7,82.8 M194.9,83.3
	c0-26.2-21.3-47.5-47.5-47.5S99.9,57.1,99.9,83.3s21.3,47.5,47.5,47.5C173.7,130.8,194.9,109.5,194.9,83.3 M274.7,82.8
	c0,12.9-10.4,23.3-23.3,23.3c-12.9,0-23.3-10.4-23.3-23.3s10.4-23.3,23.3-23.3C264.2,59.4,274.7,69.9,274.7,82.8 M297.9,83.3v-79
	h-25.8V41c-6.5-3.3-13.9-5.3-21.7-5.3c-26.2,0-47.5,21.3-47.5,47.5s21.3,47.5,47.5,47.5C276.6,130.8,297.9,109.5,297.9,83.3
	 M369.6,96.9c0,8.6-8.9,12.3-12.3,12.3h-14.9c-5.5,0-10.5-4.2-10.5-10.7s4.8-10.7,12.3-10.7h25.4C369.6,93.3,369.6,94.2,369.6,96.9
	 M394.2,100.3V64.7c0,0-5.2-28-40.5-28c-29.9,0-33.3,4.2-33.3,4.2v19.7c0,0,7.1-2.7,28.6-2.7c21.6,0,20,13.6,20,13.6
	s-62.2-8.9-62.2,28.8c0,0,0.2,30.5,42.6,30.5C391.7,130.8,394.2,100.3,394.2,100.3 M458.8,83.1l35.4-42.2h-33.3l-28.3,33.8V4.2
	h-25.8v125h25.8V93.5l30,35.8h35L458.8,83.1z"/>
</svg>
